DepardonDepardon - Profils Paysans I L'approche (2001, 90') Rip Par Bourdieu.avi
Format                                   : AVI
Format/Info                              : Audio Video Interleave
File size                                : 1.22 GiB
Duration                                 : 1h 29mn
Overall bit rate                         : 1 936 Kbps
Writing library                          : VirtualDub build 13870/release

Video
ID                                       : 0
Format                                   : MPEG-4 Visual
Codec ID                                 : DIV3
Codec ID/Hint                            : DivX 3 Low
Duration                                 : 1h 29mn
Bit rate                                 : 1 863 Kbps
Width                                    : 720 pixels
Height                                   : 416 pixels
Display aspect ratio                     : 1.731
Frame rate                               : 25.000 fps
Color space                              : YUV
Chroma subsampling                       : 4:2:0
Bit depth                                : 8 bits
Compression mode                         : Lossy
Bits/(Pixel*Frame)                       : 0.249
Stream size                              : 1.17 GiB (96%)

Audio
ID                                       : 1
Format                                   : WMA
Format version                           : Version 2
Codec ID                                 : 161
Codec ID/Info                            : Windows Media Audio
Duration                                 : 1h 29mn
Bit rate                                 : 64.1 Kbps
Channel(s)                               : 2 channels
Sampling rate                            : 44.1 KHz
Bit depth                                : 16 bits
Stream size                              : 41.2 MiB (3%)
Interleave, duration                     : 46 ms (1.16 video frame)
Interleave, preload duration             : 464 ms
